<?xml version="1.0" encoding="iso-8859-1"?>
<!-- Generator: Adobe Illustrator 19.0.0, SVG Export Plug-In . SVG Version: 6.00 Build 0)  -->
<svg version="1.1" id="Capa_1" xmlns="http://www.w3.org/2000/svg" xmlns:xlink="http://www.w3.org/1999/xlink" x="0px" y="0px"
	 viewBox="0 0 512 512" style="enable-background:new 0 0 512 512;" xml:space="preserve">
<g>
	<path style="fill:#E3E8EC;" d="M144.817,185.525v-15.366c0-4.492-3.641-8.134-8.134-8.134h-28.166
		c-4.492,0-8.134,3.641-8.134,8.134v54.566"/>
	<path style="fill:#E3E8EC;" d="M411.624,224.726V170.16c0-4.492-3.641-8.134-8.134-8.134h-28.166c-4.492,0-8.134,3.641-8.134,8.134
		v15.366"/>
</g>
<g>
	<path style="fill:#D5D8DB;" d="M115.716,242.673h-15.333v-72.514c0-4.492,3.641-8.134,8.134-8.134h7.199V242.673z"/>
	<path style="fill:#D5D8DB;" d="M382.523,242.673H367.19v-72.514c0-4.492,3.641-8.134,8.134-8.134h7.199V242.673z"/>
</g>
<path style="fill:#008AC1;" d="M340.687,468.287l-72.992-13.359h-23.385l-12.533,2.29l-60.459,11.069
	c-8.923,1.599-14.586-9.294-8.201-15.68l41.716-41.716l13.503-13.503h75.334l55.219,55.219
	C355.273,458.993,349.62,469.886,340.687,468.287z"/>
<g>
	<path style="fill:#027FA5;" d="M502.395,304.741c2.053,1.848,3.642,3.848,4.824,5.952c8.979,16.06-7.184,37.661-26.835,29.709
		l-182.66-73.783h-83.429L31.636,340.401c-19.651,7.953-35.865-13.699-26.835-29.708c1.078-2.103,2.719-4.054,4.772-5.9
		l204.774-180.556h83.325L502.395,304.741z"/>
	<path style="fill:#027FA5;" d="M257.379,397.389v57.54h-13.07l-12.533,2.29c-11.853-10.976-21.425-32.019-26.944-46.327
		l13.503-13.503H257.379z"/>
</g>
<path style="fill:#008AC1;" d="M507.22,310.697c-4.724,8.82-15.133,14.617-26.841,9.903l-182.708-73.838l-11.646-0.01l-71.734-0.041
	l-11.636,4.704L31.583,320.549c-11.646,4.766-22.116-1.083-26.779-9.851c1.073-2.104,2.713-4.054,4.766-5.9L202.655,134.54
	l11.687-10.305h83.329l204.721,180.511C504.445,306.592,506.034,308.593,507.22,310.697z"/>
<polygon style="fill:#027FA5;" points="286.025,124.235 286.025,246.752 214.291,246.71 202.655,251.414 202.655,134.54 
	214.342,124.235 "/>
<path style="fill:#E3E8EC;" d="M263.179,463.06l16.254-29.097c11.973-21.333,18.285-45.424,18.285-69.877V75.795
	c0-26.191-7.1-46.16-15.442-60.582c-11.734-20.285-40.813-20.277-52.528,0.02c-8.323,14.421-15.404,34.383-15.404,60.562v288.29
	c0,24.454,6.24,48.544,18.213,69.877l16.254,29.097v0.072"/>
<g>
	<path style="fill:#D5D8DB;" d="M245.302,433.962l7.427,29.1v0.052l-3.92,0.021v-0.072l-16.247-29.1
		c-11.976-21.332-18.217-45.419-18.217-69.877V75.798c0-26.181,7.076-46.141,15.401-60.562C235.606,5.086,245.818,0,256.02,0
		c-4.663,0.01-9.315,5.096-11.997,15.236c-3.806,14.421-7.045,34.382-7.045,60.562v288.287
		C236.978,388.543,239.835,412.63,245.302,433.962z"/>
	<polygon style="fill:#D5D8DB;" points="256.03,463.093 252.729,463.134 252.729,463.114 	"/>
</g>
<g>
	<path style="fill:#008AC1;" d="M256.032,512c-4.274,0-7.737-3.464-7.737-7.737V401.025c0-4.273,3.463-7.737,7.737-7.737
		s7.737,3.464,7.737,7.737v103.238C263.769,508.536,260.305,512,256.032,512z"/>
	<path style="fill:#008AC1;" d="M273.529,61.678c-1.98,0-3.96-0.755-5.471-2.266c-6.631-6.631-17.42-6.631-24.05,0
		c-3.022,3.021-7.92,3.021-10.942,0c-3.021-3.021-3.021-7.92,0-10.941c12.664-12.663,33.269-12.663,45.934,0
		c3.021,3.021,3.021,7.92,0,10.941C277.489,60.923,275.508,61.678,273.529,61.678z"/>
</g>
<g>
</g>
<g>
</g>
<g>
</g>
<g>
</g>
<g>
</g>
<g>
</g>
<g>
</g>
<g>
</g>
<g>
</g>
<g>
</g>
<g>
</g>
<g>
</g>
<g>
</g>
<g>
</g>
<g>
</g>
</svg>
